<svg width="71" height="81" viewBox="0 0 71 81" fill="none" xmlns="http://www.w3.org/2000/svg">
<path d="M4.35547 74.0293C4.33594 73.7689 4.23177 73.5671 4.04297 73.4238C3.85417 73.2806 3.59049 73.209 3.25195 73.209C2.92318 73.209 2.66927 73.2741 2.49023 73.4043C2.31445 73.5345 2.22656 73.7038 2.22656 73.9121C2.22656 74.1139 2.31771 74.2767 2.5 74.4004C2.68229 74.5208 2.94271 74.6185 3.28125 74.6934L3.89648 74.8398C4.5931 74.9961 5.12533 75.2484 5.49316 75.5967C5.86426 75.945 6.05143 76.3958 6.05469 76.9492C6.05143 77.3919 5.9375 77.7744 5.71289 78.0967C5.49154 78.4189 5.1709 78.6663 4.75098 78.8389C4.33431 79.0114 3.83464 79.0977 3.25195 79.0977C2.65951 79.0977 2.14518 79.0081 1.70898 78.8291C1.27604 78.6468 0.939128 78.375 0.698242 78.0137C0.457357 77.6523 0.332031 77.2064 0.322266 76.6758H1.92383C1.94336 77.0111 2.06868 77.2682 2.2998 77.4473C2.53418 77.623 2.84505 77.7109 3.23242 77.7109C3.57747 77.7109 3.85091 77.641 4.05273 77.501C4.25456 77.361 4.35872 77.1771 4.36523 76.9492C4.36198 76.7474 4.26921 76.5863 4.08691 76.4658C3.90462 76.3454 3.61328 76.2396 3.21289 76.1484L2.4707 75.9727C1.16211 75.6699 0.507812 75.0189 0.507812 74.0195C0.504557 73.5898 0.620117 73.209 0.854492 72.877C1.09212 72.5449 1.41927 72.2878 1.83594 72.1055C2.25586 71.9232 2.73112 71.832 3.26172 71.832C3.79883 71.832 4.26921 71.9248 4.67285 72.1104C5.0765 72.2926 5.389 72.5498 5.61035 72.8818C5.83496 73.2139 5.95052 73.5964 5.95703 74.0293H4.35547ZM6.91406 71.9297H11.8066V73.2871H8.57422V74.7812H11.5527V76.1387H8.57422V77.6426H11.8164V79H6.91406V71.9297ZM12.5391 79L14.9414 71.9297H17.1484L19.541 79H17.7539L17.2754 77.4863H14.8145L14.3359 79H12.5391ZM16.875 76.2168L16.0742 73.6777H16.0156L15.2148 76.2168H16.875ZM23.8965 74.0293C23.877 73.7689 23.7728 73.5671 23.584 73.4238C23.3952 73.2806 23.1315 73.209 22.793 73.209C22.4642 73.209 22.2103 73.2741 22.0312 73.4043C21.8555 73.5345 21.7676 73.7038 21.7676 73.9121C21.7676 74.1139 21.8587 74.2767 22.041 74.4004C22.2233 74.5208 22.4837 74.6185 22.8223 74.6934L23.4375 74.8398C24.1341 74.9961 24.6663 75.2484 25.0342 75.5967C25.4053 75.945 25.5924 76.3958 25.5957 76.9492C25.5924 77.3919 25.4785 77.7744 25.2539 78.0967C25.0326 78.4189 24.7119 78.6663 24.292 78.8389C23.8753 79.0114 23.3757 79.0977 22.793 79.0977C22.2005 79.0977 21.6862 79.0081 21.25 78.8291C20.8171 78.6468 20.4801 78.375 20.2393 78.0137C19.9984 77.6523 19.873 77.2064 19.8633 76.6758H21.4648C21.4844 77.0111 21.6097 77.2682 21.8408 77.4473C22.0752 77.623 22.3861 77.7109 22.7734 77.7109C23.1185 77.7109 23.3919 77.641 23.5938 77.501C23.7956 77.361 23.8997 77.1771 23.9062 76.9492C23.903 76.7474 23.8102 76.5863 23.6279 76.4658C23.4456 76.3454 23.1543 76.2396 22.7539 76.1484L22.0117 75.9727C20.7031 75.6699 20.0488 75.0189 20.0488 74.0195C20.0456 73.5898 20.1611 73.209 20.3955 72.877C20.6331 72.5449 20.9603 72.2878 21.377 72.1055C21.7969 71.9232 22.2721 71.832 22.8027 71.832C23.3398 71.832 23.8102 71.9248 24.2139 72.1104C24.6175 72.2926 24.93 72.5498 25.1514 72.8818C25.376 73.2139 25.4915 73.5964 25.498 74.0293H23.8965ZM33.0859 75.4648C33.0859 76.2233 32.9395 76.876 32.6465 77.4229C32.3568 77.9697 31.9564 78.3864 31.4453 78.6729C30.9375 78.9561 30.3646 79.0977 29.7266 79.0977C29.0853 79.0977 28.5107 78.9544 28.0029 78.668C27.4951 78.3815 27.0947 77.9648 26.8018 77.418C26.512 76.8711 26.3672 76.2201 26.3672 75.4648C26.3672 74.7064 26.512 74.0537 26.8018 73.5068C27.0947 72.96 27.4951 72.5449 28.0029 72.2617C28.5107 71.9753 29.0853 71.832 29.7266 71.832C30.3646 71.832 30.9375 71.9753 31.4453 72.2617C31.9564 72.5449 32.3568 72.96 32.6465 73.5068C32.9395 74.0537 33.0859 74.7064 33.0859 75.4648ZM31.3867 75.4648C31.3867 75.0026 31.32 74.6087 31.1865 74.2832C31.0563 73.9577 30.8659 73.7119 30.6152 73.5459C30.3678 73.3799 30.0716 73.2969 29.7266 73.2969C29.3815 73.2969 29.0837 73.3799 28.833 73.5459C28.5856 73.7119 28.3952 73.9577 28.2617 74.2832C28.1315 74.6087 28.0664 75.0026 28.0664 75.4648C28.0664 75.9271 28.1315 76.321 28.2617 76.6465C28.3952 76.972 28.5856 77.2178 28.833 77.3838C29.0837 77.5498 29.3815 77.6328 29.7266 77.6328C30.0716 77.6328 30.3678 77.5498 30.6152 77.3838C30.8659 77.2178 31.0563 76.972 31.1865 76.6465C31.32 76.321 31.3867 75.9271 31.3867 75.4648ZM40.0684 79H38.6523L35.7812 74.8496H35.7324V79H34.0723V71.9297H35.5078L38.3496 76.0801H38.4082V71.9297H40.0684V79ZM43.0078 71.9297H44.8438L45.9277 76.6172H45.9863L47.2168 71.9297H48.7305L49.9707 76.627H50.0195L51.1133 71.9297H52.9492L50.8984 79H49.2969L48.0078 74.6445H47.9492L46.6602 79H45.0488L43.0078 71.9297ZM53.6523 71.9297H58.5449V73.2871H55.3125V74.7812H58.291V76.1387H55.3125V77.6426H58.5547V79H53.6523V71.9297ZM59.6094 71.9297H61.2695V77.6426H64.2383V79H59.6094V71.9297ZM65.1074 71.9297H66.7676V77.6426H69.7363V79H65.1074V71.9297Z" fill="#ffffff"/>
<path d="M41.8353 49.7493L35.9047 43.2427L29 50.8771L34.4203 57.8282C36.2015 59.8015 38.4413 61.2925 40.9361 62.1659C44.2903 63.3154 49.0077 63.6841 54.453 60.5573C54.453 60.5573 62.9634 56.3751 61.7681 46.0984C61.3133 42.4663 59.7902 39.0568 57.3968 36.3133L43.0093 19.1505C42.838 18.9517 42.6774 18.7493 42.5275 18.5396C41.9742 17.9117 41.5797 17.1569 41.3782 16.3403C41.1767 15.5236 41.1741 14.6696 41.3707 13.8517C41.5672 13.0338 41.9571 12.2766 42.5066 11.6452C43.0562 11.0138 43.749 10.5272 44.5254 10.2272C45.3018 9.92718 46.1386 9.82281 46.9636 9.92308C47.7887 10.0233 48.5773 10.3252 49.2616 10.8028C49.9459 11.2803 50.5055 11.9191 50.892 12.6643C51.2786 13.4094 51.4805 14.2386 51.4805 15.0803C51.4794 15.3028 51.4639 15.525 51.4342 15.7455H62C62 15.7455 61.3827 0.755169 48.0442 0.0286077C44.9175 -0.154598 41.8019 0.544847 39.0444 2.04908C36.2869 3.55331 33.9956 5.8033 32.4256 8.54854C29.8671 13.0995 28.8323 19.5301 34.9234 27.0668L47.2306 40.8281L50.1495 44.038C50.5907 44.5225 50.9333 45.0904 51.1577 45.7091C51.3822 46.3279 51.484 46.9853 51.4575 47.644C51.431 48.3026 51.2766 48.9495 51.0032 49.5476C50.7298 50.1458 50.3427 50.6835 49.8641 51.1301C49.386 51.5772 48.8256 51.9245 48.2149 52.1522C47.6042 52.3798 46.9553 52.4834 46.3051 52.4568C45.6549 52.4303 45.0163 52.2743 44.4257 51.9976C43.835 51.721 43.3041 51.3291 42.863 50.8445" fill="#ffffff"/>
<path d="M29.5266 49.7514L35.9 43.1857L42.5 50.4528L36.895 57.8283C35.1263 59.8005 32.9042 61.2916 30.4295 62.1668C27.1012 63.3165 22.4203 63.6817 17.0171 60.558C17.0171 60.558 8.57235 56.3713 9.75851 46.0962C10.2045 42.4717 11.7056 39.0673 14.0676 36.3236L28.344 19.1575C28.514 18.9586 28.6733 18.7525 28.822 18.5428C29.3711 17.9148 29.7625 17.1598 29.9625 16.343C30.1624 15.5262 30.165 14.672 29.97 13.854C29.7749 13.0359 29.3881 12.2786 28.8428 11.647C28.2975 11.0155 27.61 10.5288 26.8396 10.2287C26.0692 9.92865 25.2389 9.82429 24.4202 9.92458C23.6016 10.0249 22.819 10.3268 22.14 10.8044C21.4609 11.282 20.9057 11.921 20.5222 12.6663C20.1387 13.4116 19.9382 14.2409 19.9382 15.0829C19.9391 15.3054 19.9545 15.5277 19.9843 15.7481H9.5C9.5 15.7481 10.1126 0.75483 23.348 0.0281254C26.4503 -0.153453 29.5411 0.546861 32.2771 2.05122C35.013 3.55558 37.2868 5.80508 38.8459 8.54974C41.3846 13.1016 42.4115 19.5371 36.3674 27.0717L24.1517 40.8357L21.2554 44.0462C20.8175 44.5312 20.4775 45.0994 20.2547 45.7186C20.032 46.3377 19.9309 46.9956 19.9572 47.6547C19.9835 48.3137 20.1367 48.9611 20.4081 49.5597C20.6794 50.1582 21.0636 50.6964 21.5386 51.1433C22.0133 51.5903 22.5695 51.9374 23.1756 52.1648C23.7816 52.3922 24.4257 52.4954 25.0708 52.4686C25.716 52.4417 26.3496 52.2853 26.9356 52.0083C27.5215 51.7313 28.0482 51.3391 28.4856 50.8541" fill="#ffffff"/>
</svg>
