<svg width="22" height="22" viewBox="0 0 22 22" fill="none" xmlns="http://www.w3.org/2000/svg">
<path d="M9.94574 3.1084H2.98794C2.46071 3.1084 1.95507 3.31784 1.58225 3.69066C1.20944 4.06347 1 4.56912 1 5.09636V19.0121C1 19.5393 1.20944 20.045 1.58225 20.4178C1.95507 20.7906 2.46071 21.0001 2.98794 21.0001H16.9035C17.4308 21.0001 17.9364 20.7906 18.3092 20.4178C18.682 20.045 18.8915 19.5393 18.8915 19.0121V12.0542" stroke="black" stroke-width="2" stroke-linecap="round" stroke-linejoin="round"/>
<path d="M17.3976 1.61758C17.7931 1.22215 18.3294 1 18.8886 1C19.4478 1 19.9841 1.22215 20.3795 1.61758C20.775 2.01301 20.9971 2.54933 20.9971 3.10855C20.9971 3.66778 20.775 4.2041 20.3795 4.59953L10.9368 14.0424L6.96094 15.0363L7.95491 11.0604L17.3976 1.61758Z" stroke="black" stroke-width="2" stroke-linecap="round" stroke-linejoin="round"/>
</svg>
